<?xml version="1.0" standalone="no"?>
<!DOCTYPE svg PUBLIC "-//W3C//DTD SVG 20010904//EN"
 "http://www.w3.org/TR/2001/REC-SVG-20010904/DTD/svg10.dtd">
<svg version="1.0" xmlns="http://www.w3.org/2000/svg"
 width="600.000000pt" height="600.000000pt" viewBox="0 0 600.000000 600.000000"
 preserveAspectRatio="xMidYMid meet">

<g transform="translate(0.000000,600.000000) scale(0.100000,-0.100000)"
fill="#000000" stroke="none">
<path d="M2935 4857 c-63 -21 -123 -55 -166 -94 -52 -47 -64 -70 -48 -89 19
-23 41 -16 84 25 22 22 65 52 95 68 48 25 66 28 145 28 79 0 97 -3 145 -28 30
-16 73 -46 95 -68 43 -41 65 -48 84 -25 9 11 9 20 2 34 -21 39 -110 109 -168
132 -71 28 -208 37 -268 17z"/>
<path d="M2954 4694 c-51 -18 -124 -79 -124 -104 0 -24 28 -46 44 -34 7 5 32
23 55 41 78 59 178 53 252 -14 32 -29 44 -35 57 -26 32 19 25 49 -19 86 -73
63 -175 83 -265 51z"/>
<path d="M2988 4535 c-61 -34 -37 -101 25 -68 27 14 33 14 63 0 65 -31 88 35
24 68 -36 19 -77 19 -112 0z"/>
<path d="M2518 4412 c-37 -5 -88 -64 -88 -103 0 -30 27 -89 41 -89 4 0 15 -7
23 -16 12 -12 16 -38 16 -114 0 -114 4 -120 84 -120 l46 0 0 -45 0 -45 -67 0
-66 0 -63 60 -62 60 -145 0 -146 0 -21 30 c-30 43 -89 59 -135 37 -105 -50
-69 -207 47 -207 32 0 47 7 75 35 l35 35 132 0 132 0 54 -55 54 -55 72 0 c98
0 104 -3 104 -56 0 -40 -2 -44 -25 -44 -14 0 -39 -13 -56 -28 -24 -21 -32 -38
-36 -75 l-6 -47 -99 0 c-97 0 -99 0 -109 -27 -5 -14 -8 -36 -7 -47 3 -19 -3
-21 -55 -24 -56 -3 -61 -1 -93 32 -48 50 -110 53 -156 9 -57 -54 -42 -144 29
-178 45 -22 85 -12 127 31 32 33 35 34 118 34 96 0 108 7 108 62 l0 38 70 0
70 0 0 -80 0 -80 -83 0 c-51 0 -88 -5 -95 -12 -7 -7 -12 -33 -12 -59 0 -40 -5
-52 -35 -82 -27 -27 -35 -43 -35 -72 0 -75 55 -123 126 -112 97 16 121 128 43
199 -46 42 -36 62 33 66 l57 3 3 -32 c4 -39 29 -59 52 -40 14 11 16 43 16 207
0 106 4 204 10 218 l10 26 433 0 c323 0 436 -3 445 -12 9 -9 12 -99 12 -344 0
-333 0 -333 -22 -348 -12 -9 -37 -16 -54 -16 -33 0 -48 -18 -38 -45 10 -25
105 -22 140 3 39 29 44 56 44 222 l0 160 60 0 c59 0 60 0 60 -28 0 -20 -7 -33
-25 -42 -13 -7 -32 -29 -41 -48 -42 -90 60 -187 149 -141 39 20 57 51 57 100
0 39 -5 50 -35 79 -30 29 -35 40 -35 80 0 25 -5 51 -12 58 -7 7 -44 12 -95 12
l-83 0 0 80 0 81 73 -3 72 -3 5 -45 5 -45 91 -3 c88 -3 91 -3 122 -37 41 -43
80 -52 127 -29 99 47 77 197 -30 206 -46 3 -65 -4 -97 -37 -32 -34 -36 -36
-93 -33 -54 3 -60 5 -57 24 1 11 -2 33 -7 47 -10 27 -12 27 -109 27 l-99 0 -6
46 c-6 53 -36 91 -81 102 -29 8 -31 12 -31 53 l0 44 87 3 88 3 57 54 58 55
128 0 128 0 33 -35 c27 -28 41 -35 70 -35 72 0 115 41 116 107 0 52 -36 100
-85 109 -40 7 -97 -17 -120 -52 -15 -24 -18 -24 -159 -24 l-144 0 -62 -60 -63
-61 -66 3 -66 3 -3 43 -3 42 53 0 c30 0 59 5 66 12 8 8 12 47 12 107 l0 96 40
38 c32 30 40 44 40 73 0 71 -41 114 -110 113 -48 0 -66 -9 -93 -49 -33 -47
-17 -108 40 -153 20 -16 23 -28 23 -82 0 -70 -14 -91 -53 -81 -18 4 -30 20
-45 61 -43 110 -115 186 -229 237 -57 26 -200 31 -270 10 -105 -32 -227 -150
-255 -246 -16 -55 -27 -68 -57 -64 -25 3 -26 6 -29 80 -3 69 -1 78 17 88 26
14 51 61 51 97 0 23 -32 93 -42 93 -2 0 -17 3 -33 8 -17 4 -42 6 -57 4z m47
-75 c13 -10 16 -21 11 -41 -5 -22 -12 -27 -33 -24 -38 4 -52 32 -29 57 22 25
26 25 51 8z m1009 -3 c29 -28 15 -64 -24 -64 -37 0 -50 33 -24 61 21 23 28 24
48 3z m-386 -68 c29 -15 70 -44 92 -66 79 -79 103 -164 98 -350 l-3 -125 -37
-3 c-31 -3 -38 0 -38 15 0 114 -11 277 -21 311 -16 54 -69 117 -123 144 -58
30 -165 31 -221 1 -77 -41 -139 -134 -133 -201 3 -32 6 -37 28 -37 21 0 27 7
40 50 46 152 223 191 317 68 28 -36 28 -39 31 -195 l3 -158 -175 0 -176 0 0
43 c0 70 -9 89 -39 85 -24 -3 -26 -7 -31 -63 l-5 -60 -40 0 -40 0 1 160 c0
153 2 163 28 217 43 90 120 158 216 189 14 5 59 7 100 5 58 -2 87 -9 128 -30z
m-1184 -269 c36 -26 -4 -84 -41 -61 -25 16 -28 45 -7 61 10 7 21 13 24 13 3 0
14 -6 24 -13z m2127 3 c21 -12 25 -40 7 -58 -18 -18 -46 -14 -58 7 -13 25 -13
27 6 45 18 19 20 19 45 6z m-2026 -565 c0 -26 -3 -30 -29 -30 -36 0 -56 26
-36 50 8 9 24 15 39 13 22 -2 26 -8 26 -33z m1945 20 c20 -24 3 -55 -30 -55
-20 0 -31 6 -35 20 -8 25 10 50 35 50 10 0 23 -7 30 -15z m-1655 -321 c19 -20
16 -43 -7 -58 -35 -22 -74 27 -48 59 16 19 35 19 55 -1z m1359 -5 c20 -29 1
-61 -34 -57 -28 3 -40 39 -20 64 17 20 36 18 54 -7z"/>
<path d="M2972 3492 c-62 -48 -77 -114 -42 -182 13 -25 20 -59 20 -95 0 -49 4
-60 29 -86 22 -21 39 -29 66 -29 27 0 44 8 66 29 25 26 29 37 29 88 0 39 7 72
20 98 11 22 20 50 20 62 0 41 -28 92 -62 113 -42 25 -114 26 -146 2z m128 -85
c14 -25 13 -30 -4 -60 -11 -19 -22 -61 -25 -102 -5 -61 -8 -70 -26 -70 -17 0
-21 8 -25 65 -3 36 -13 80 -23 97 -31 58 -4 105 58 100 20 -1 34 -10 45 -30z"/>
<path d="M2532 3088 c-7 -7 -12 -40 -12 -76 0 -69 18 -112 54 -131 14 -8 129
-11 366 -9 l345 3 0 25 0 25 -337 5 c-185 3 -340 8 -344 12 -4 4 -9 31 -11 60
-2 29 -6 63 -9 76 -5 24 -32 30 -52 10z"/>
<path d="M4355 2487 c-73 -42 -108 -123 -87 -203 6 -24 32 -76 57 -117 25 -41
45 -77 45 -80 0 -3 -19 -15 -42 -25 -86 -38 -138 -116 -138 -207 0 -64 15
-106 55 -153 80 -96 239 -104 333 -18 l24 21 16 -22 c10 -12 24 -33 33 -45 15
-21 18 -22 44 -8 15 8 30 20 32 27 3 7 -12 43 -34 81 -38 66 -39 68 -35 155
l3 87 55 0 54 0 0 45 0 45 -105 0 -105 0 0 -52 c0 -66 -2 -64 -110 112 -91
148 -104 189 -74 239 32 53 83 62 166 27 12 -6 21 0 32 23 9 16 16 34 16 39 0
5 -22 19 -49 31 -66 28 -134 27 -186 -2z m136 -592 c32 -49 58 -94 58 -99 1
-5 -15 -24 -35 -42 -31 -30 -42 -34 -87 -34 -66 0 -107 24 -131 78 -31 69 -1
147 68 178 53 23 66 15 127 -81z"/>
<path d="M710 2410 l0 -50 50 0 50 0 -2 -317 -3 -318 -47 -3 -48 -3 0 -45 0
-44 140 0 140 0 0 44 c0 44 0 45 -37 48 l-38 3 -3 238 c-1 130 1 237 5 237 5
-1 26 -25 48 -54 147 -198 271 -355 280 -355 10 0 141 165 261 328 l69 94 3
-234 c1 -128 0 -239 -2 -246 -3 -8 -22 -13 -46 -13 l-41 0 3 -42 3 -43 140 0
140 0 3 43 3 42 -50 0 -51 0 0 319 0 320 48 3 47 3 0 45 0 45 -64 0 -65 0 -88
-115 c-49 -63 -136 -177 -194 -252 -57 -75 -108 -140 -114 -143 -10 -6 -49 42
-250 305 -168 220 -156 210 -230 210 l-60 0 0 -50z"/>
<path d="M1965 2445 c-88 -34 -143 -129 -132 -227 11 -93 66 -149 176 -182 87
-26 134 -48 164 -75 49 -45 58 -138 18 -187 -50 -62 -158 -76 -246 -32 -49 24
-50 25 -55 79 l-5 54 -42 3 -43 3 0 -75 0 -76 48 -35 c62 -45 132 -68 212 -69
83 -1 148 24 193 73 47 52 61 99 55 183 -9 121 -55 166 -234 228 -109 38 -144
68 -144 128 0 49 18 81 59 109 38 25 79 29 147 12 41 -11 44 -14 44 -45 0 -27
5 -35 24 -40 52 -13 61 -4 64 63 l3 61 -57 28 c-69 34 -186 43 -249 19z"/>
<path d="M2334 2446 c-3 -8 -4 -29 -2 -48 2 -25 8 -34 26 -36 l22 -3 0 -320 0
-319 -26 0 c-23 0 -25 -3 -22 -42 l3 -43 138 -3 c88 -2 137 1 138 8 1 5 2 17
2 25 0 54 0 54 -65 57 l-63 3 0 135 0 135 49 0 c33 0 52 -5 57 -15 5 -8 45
-91 89 -183 l79 -168 83 3 83 3 3 43 3 42 -56 0 -56 0 -64 136 c-36 75 -65
139 -65 143 0 3 22 16 50 29 59 27 95 74 111 148 14 63 7 108 -27 160 -57 89
-159 124 -357 124 -100 0 -129 -3 -133 -14z m364 -115 c83 -58 81 -159 -3
-211 -29 -18 -52 -22 -123 -23 l-87 -2 -3 134 -3 133 94 -4 c77 -3 99 -8 125
-27z"/>
<path d="M3544 2447 c-3 -8 -4 -30 -2 -49 2 -25 8 -34 26 -36 l22 -3 1 -297
c0 -163 2 -305 4 -315 2 -13 -5 -19 -26 -24 -28 -5 -30 -8 -27 -47 l3 -41 140
0 140 0 3 42 3 42 -68 3 -68 3 0 135 0 135 105 6 c169 9 233 52 260 173 18 82
-1 144 -59 199 -69 64 -122 79 -303 85 -125 3 -149 1 -154 -11z m339 -101
c103 -43 116 -168 24 -225 -36 -22 -148 -38 -191 -27 l-26 6 0 130 0 130 80 0
c46 0 95 -6 113 -14z"/>
<path d="M5025 2441 c-80 -36 -125 -109 -125 -203 0 -102 52 -161 181 -203
168 -56 199 -83 199 -177 0 -55 -3 -63 -33 -93 -59 -59 -146 -67 -238 -21 -43
22 -44 24 -49 77 l-5 54 -42 3 -43 3 0 -75 c0 -74 0 -75 38 -105 89 -74 249
-98 345 -52 117 57 161 198 101 320 -33 65 -69 90 -199 136 -124 44 -155 71
-155 133 0 105 94 158 210 119 29 -10 36 -18 40 -47 5 -37 22 -47 66 -36 22 6
24 12 24 61 0 47 -3 56 -27 73 -74 51 -212 67 -288 33z"/>
<path d="M3184 2130 c-109 -143 -200 -264 -202 -270 -2 -6 53 -10 158 -10
l161 0 -3 -62 -3 -63 -43 -3 -43 -3 3 -42 3 -42 137 -3 137 -3 7 25 c11 47 2
61 -46 66 l-45 5 -3 63 -3 62 56 0 55 0 0 45 0 45 -55 0 -55 0 0 219 c0 121
-4 222 -8 225 -5 3 -98 -112 -208 -254z m114 -107 l-3 -78 -49 -3 c-82 -5 -83
0 -19 83 31 41 61 75 66 75 4 0 7 -35 5 -77z"/>
</g>
</svg>
